#!OML:ASF E:\Style4\Style4.ASF
:FULLY-SPECIFIED
:DEGREES
2827
root -0.111857 18.0196 -1.67182 0.484826 -2.21053 1.23214
lowerback 2.79406 2.19663 -0.074899
upperback 0.409258 2.92596 0.0406068
thorax -1.15078 1.4621 -0.0259443
lowerneck -3.18886 -4.34153 -6.35537
upperneck 13.7845 -5.77132 3.08843
head 4.93897 -2.96984 1.68554
rclavicle -3.33834e-014 1.39149e-015
rhumerus 33.258 7.792 -44.0682
rradius 96.5228
rwrist -38.0957
rhand -16.1237 30.8071
rfingers 7.12502
rthumb 10.0808 1.06856
lclavicle -3.33834e-014 1.39149e-015
lhumerus -2.50837 -41.5117 85.8069
lradius 100.268
lwrist 2.58101
lhand -35.1771 12.6797
lfingers 7.12502
lthumb -8.31568 42.4961
rfemur -7.74787 3.4117 17.6046
rtibia 23.4389
rfoot -14.6341 -15.7032
rtoes -14.6818
lfemur -5.17232 -3.86389 -20.2274
ltibia 21.2382
lfoot -16.8102 11.5424
ltoes -14.6886
2828
root -0.111499 18.0207 -1.67305 0.517432 -2.28922 1.32796
lowerback 2.79866 2.17235 -0.180268
upperback 0.431414 2.8906 0.056804
thorax -1.13667 1.44487 0.051008
lowerneck -3.14109 -4.31223 -6.42672
upperneck 13.6497 -5.718 3.02536
head 4.88742 -2.95059 1.68276
rclavicle -1.21383e-014 -5.36719e-015
rhumerus 32.2926 8.46538 -44.5313
rradius 97.1204
rwrist -37.8147
rhand -16.5076 30.9388
rfingers 7.12502
rthumb 9.71043 1.18261
lclavicle -1.21383e-014 -5.36719e-015
lhumerus -3.10888 -41.0886 85.9456
lradius 100.472
lwrist 3.32801
lhand -34.7715 11.7445
lfingers 7.12502
lthumb -7.92419 41.5759
rfemur -7.79949 3.48356 17.4944
rtibia 23.4237
rfoot -14.5917 -15.7314
rtoes -14.8012
lfemur -5.17402 -3.83361 -20.3356
ltibia 21.1695
lfoot -16.8279 11.5685
ltoes -14.5208
2829
root -0.111062 18.0224 -1.67473 0.571748 -2.3638 1.29651
lowerback 2.81232 2.17199 -0.129377
upperback 0.42039 2.89171 0.0629154
thorax -1.15342 1.44523 0.0279928
lowerneck -3.08986 -4.32105 -6.43813
upperneck 13.5857 -5.7264 2.98916
head 4.85895 -2.95745 1.67452
rclavicle -1.08835e-014 5.76476e-015
rhumerus 31.0605 9.17415 -44.9869
rradius 97.8508
rwrist -37.6999
rhand -17.092 30.9837
rfingers 7.12502
rthumb 9.14657 1.20209
lclavicle -1.08835e-014 5.76476e-015
lhumerus -3.84581 -40.8162 86.0941
lradius 100.788
lwrist 3.91634
lhand -33.8418 11.0728
lfingers 7.12502
lthumb -7.0269 40.9362
rfemur -7.88191 3.54012 17.5254
rtibia 23.4209
rfoot -14.5881 -15.7169
rtoes -14.9315
lfemur -5.19643 -3.81445 -20.3009
ltibia 21.1067
lfoot -16.8011 11.5926
ltoes -14.2924
2830
root -0.110107 18.0237 -1.67551 0.599015 -2.39356 1.29653
lowerback 2.82903 2.15305 -0.10873
upperback 0.440974 2.86694 0.0553123
thorax -1.14022 1.43274 0.00948501
lowerneck -3.12359 -4.31691 -6.41018
upperneck 13.552 -5.71592 2.95575
head 4.85201 -2.95231 1.65979
rclavicle 1.22998e-015 9.74045e-015
rhumerus 29.8286 9.91363 -45.5367
rradius 98.6153
rwrist -37.6651
rhand -17.6276 30.8589
rfingers 7.12502
rthumb 8.62977 1.05526
lclavicle 1.22998e-015 9.74045e-015
lhumerus -4.53669 -40.6855 86.1735
lradius 100.97
lwrist 3.76871
lhand -33.3603 11.6688
lfingers 7.12502
lthumb -6.56202 41.5472
rfemur -7.91301 3.52967 17.5144
rtibia 23.4113
rfoot -14.6303 -15.6232
rtoes -14.9857
lfemur -5.19408 -3.81993 -20.3046
ltibia 21.057
lfoot -16.7108 11.6513
ltoes -14.2008
